<svg width="120" height="120" viewBox="0 0 120 120" fill="none" xmlns="http://www.w3.org/2000/svg">
<path d="M100 0C111.046 1.28852e-06 120 8.95431 120 20V100C120 111.046 111.046 120 100 120H20C8.95431 120 3.2215e-07 111.046 0 100V20C1.2886e-06 8.95431 8.95431 3.22129e-07 20 0H100ZM60 12C40.125 12 24 28.125 24 48V98.6621C24 100.5 25.5004 102 27.3379 102C28.0878 102 28.819 101.737 29.4189 101.269L31.5186 99.5811C34.031 97.5749 37.6683 97.8939 39.7871 100.312L45.5059 106.875C46.1434 107.587 47.0438 108 48 108C48.9562 108 49.8754 107.587 50.4941 106.875L55.4814 101.156C57.8814 98.4189 62.1373 98.4189 64.5186 101.156L69.5059 106.875C70.1434 107.587 71.0438 108 72 108C72.9562 108 73.8754 107.587 74.4941 106.875L80.2129 100.312C82.3317 97.8939 85.969 97.5749 88.4814 99.5811L90.5811 101.269C91.1809 101.737 91.9122 102 92.6621 102C94.4996 102 96 100.5 96 98.6621V48C96 28.125 79.875 12 60 12ZM48 42C51.3188 42 54 44.6812 54 48C54 51.3188 51.3188 54 48 54C44.6812 54 42 51.3188 42 48C42 44.6812 44.6812 42 48 42ZM72 42C75.3188 42 78 44.6812 78 48C78 51.3188 75.3188 54 72 54C68.6812 54 66 51.3188 66 48C66 44.6812 68.6812 42 72 42Z" fill="#FBB7C0"/>
</svg>
